<svg xmlns="http://www.w3.org/2000/svg" viewBox="0 0 64 64">
  <circle cx="32" cy="32" r="32" fill="#f7931a"/>
  <path d="M44.8 28.3c.7-4.6-2.8-7.1-7.5-8.7l1.5-6.1-3.7-.9-1.5 6c-1-.2-2-.5-3-.7l1.5-6L28.4 11l-1.5 6.1c-.8-.2-1.6-.4-2.4-.6l-5.1-1.3-1 4s2.7.6 2.7.7c1.5.4 1.8 1.4 1.7 2.1l-4.1 16.5c-.2.5-.7 1.2-1.8.9.1.1-2.7-.7-2.7-.7l-1.9 4.3 4.8 1.2c.9.2 1.8.5 2.6.7l-1.6 6.2 3.7.9 1.5-6.1c1 .3 2 .5 3 .8L25 53l3.7.9 1.6-6.2c6.3 1.2 11.1.7 13.1-5 1.6-4.6-.1-7.2-3.4-8.9 2.4-.5 4.3-2.1 4.8-5.5zm-8.5 11.7c-1.1 4.6-9 2.1-11.5 1.5l2-8.2c2.6.6 10.8 1.9 9.5 6.7zm1.2-11.8c-1 4.2-7.7 2.1-9.8 1.6l1.8-7.4c2.1.5 9.1 1.5 8 5.8z" fill="#fff"/>
</svg>
